# xmcd
#
# Track frame offsets: 
#        150
#        18694
#        36914
#
# Disc length: 737 seconds
#
# Revision: 3
# Processed by: cddbd v1.5.2PL0 Copyright (c) Steve Scherf et al.
# Submitted via: ExactAudioCopyFreeDBPlugin 1.0
#
DISCID=2002df03
DTITLE=The Rolling Stones - Rain Fall Down
DYEAR=2005
DGENRE=Rock
TTITLE0=Rain Fall Down (will.i.am Remix)
TTITLE1=Rain Fall Down (Radio Edit)
TTITLE2=Rain Fall Down (Ashley Beedle`s 'Heavy Disco' Edit)
EXTD=
EXTT0=
EXTT1=
EXTT2=
PLAYORDER=
